<svg width="1229" height="574" viewBox="0 0 1229 574" fill="none" xmlns="http://www.w3.org/2000/svg">
<path d="M337.72 192.52C337.629 192.58 337.552 192.66 337.498 192.755C337.443 192.85 337.412 192.955 337.406 193.064C337.4 193.172 337.42 193.28 337.464 193.379C337.508 193.477 337.576 193.563 337.66 193.63C341.393 196.603 345 198.857 348.48 200.39C349.084 200.655 349.649 201.005 350.16 201.43C351.94 202.91 353.95 204.27 355.54 205.84C360.2 210.42 365.09 214.55 369.43 219.31C373.23 223.46 376.6 227.11 378.71 231.57C380.07 234.45 382.44 236.36 383.06 239.58C383.487 241.827 384.527 243.767 386.18 245.4C386.679 245.893 386.999 246.54 387.09 247.24L387.41 249.53C387.536 250.435 387.834 251.307 388.29 252.1L390.56 256.03C390.838 256.514 391.038 257.04 391.15 257.59C391.623 259.863 391.993 262.9 392.26 266.7C392.5 270.02 394.63 274.88 395.29 278C396.94 285.8 395.71 292.71 393.25 300.26C392.09 303.83 391.87 308.53 391.62 311.72C391.515 313.128 391.087 314.493 390.37 315.71C389.22 317.65 387.65 320.17 387.26 322.65C387.04 324.063 386.803 325.203 386.55 326.07C386.365 326.697 386.059 327.278 385.65 327.78C383.35 330.59 382.25 334.44 380.18 337.9C378.807 340.18 376.973 343.247 374.68 347.1C373.863 348.489 372.886 349.777 371.77 350.94C368.23 354.653 364.27 358.65 359.89 362.93C358.29 364.5 355.71 366.44 354.31 367.35C349.83 370.277 345.4 373.31 341.02 376.45C340.861 376.563 340.69 376.657 340.51 376.73L328.38 381.69C328.214 381.756 328.04 381.803 327.86 381.83C323.64 382.423 319.583 383.65 315.69 385.51C314.856 385.907 313.964 386.164 313.05 386.27C310.277 386.59 307.66 386.75 305.2 386.75C225.647 386.723 137.73 386.723 41.4501 386.75C37.3568 386.75 34.2734 386.673 32.2001 386.52C28.6801 386.26 27.5601 384.83 25.3201 383.28C24.9952 383.055 24.6414 382.879 24.2701 382.76L20.4001 381.53C20.3009 381.497 20.2097 381.45 20.1301 381.39C15.3501 377.637 10.6968 372.977 6.17011 367.41C5.66319 366.778 5.30445 366.044 5.12011 365.26C4.57345 362.88 3.58678 360.587 2.16011 358.38C1.65275 357.589 1.32194 356.702 1.19011 355.78C0.443445 350.673 0.0701111 346.66 0.0701111 343.74C0.090111 226.22 0.066778 125.553 0.000111357 41.74C-0.00988864 36.92 0.650111 30.76 3.40011 25.98C4.33344 24.3467 4.89345 22.5167 5.08011 20.49C5.14495 19.8242 5.43831 19.2021 5.91011 18.73L18.9001 5.74C19.56 5.07364 20.3959 4.60886 21.3101 4.4C23.8101 3.82 26.0434 2.78333 28.0101 1.29C28.6239 0.821339 29.3274 0.478067 30.0801 0.280003C30.8134 0.0933359 33.2668 0 37.4401 0C90.9268 0.04 181.593 0.0500026 309.44 0.0300026C312.573 0.0300026 314.917 0.426668 316.47 1.22C319.037 2.52667 320.7 3.22 321.46 3.3C326.413 3.8 330.737 5.17 334.43 7.41C334.716 7.58936 335.021 7.73372 335.34 7.84L339.75 9.3C340.379 9.51166 340.967 9.83315 341.49 10.25C342.697 11.2033 345.63 13.1633 350.29 16.13C358.76 21.53 366.86 29.37 372.99 36.9C374.697 39 376.6 42.04 378.7 46.02C378.906 46.4194 379.144 46.8006 379.41 47.16C381.03 49.4 382.103 51.3433 382.63 52.99C383.88 56.96 386.44 59.16 387.28 63.21C388.07 67.04 391.49 71.28 391.58 74.49C391.733 79.4767 392.813 84.91 394.82 90.79C396.033 94.3567 396.36 99.2233 395.8 105.39C395.36 110.13 392.39 115.73 392.05 120.91C391.75 125.53 391.76 128.91 389.67 132.03C388.197 134.217 387.377 136.4 387.21 138.58C387.117 139.787 386.657 140.867 385.83 141.82C384.43 143.44 383.45 145.267 382.89 147.3C382.47 148.813 381.76 150.083 380.76 151.11C378.69 153.24 378 157.04 375.96 159.67C372.007 164.79 368.5 168.733 365.44 171.5C360.52 175.953 355.947 180.127 351.72 184.02C350.3 185.327 348.567 186.367 346.52 187.14C346.048 187.32 345.596 187.544 345.17 187.81L337.72 192.52Z" fill="#CEDCE5"/>
<path d="M423.99 28.8203L426.53 25.0703C426.788 24.6937 426.971 24.2728 427.07 23.8303L427.87 20.3003C427.923 20.0765 428.025 19.8679 428.17 19.6903C432.183 14.7503 436.963 9.93693 442.51 5.25026C443.202 4.66228 444.042 4.28422 444.93 4.16026C446.677 3.92026 448.197 3.2236 449.49 2.07027C451.88 -0.0697327 454.63 0.00026389 457.19 0.00026389C480.157 0.0402639 542.073 0.0402639 642.94 0.00026389C648.347 0.00026389 652.67 0.860266 655.91 2.58027C656.321 2.799 656.766 2.95414 657.23 3.04026L660.9 3.70026C661.02 3.72023 661.14 3.73027 661.26 3.73027C666.433 3.69027 671.45 4.84026 676.31 7.18026C676.888 7.45914 677.499 7.6641 678.13 7.79026C682.577 8.6636 686.367 9.86027 689.5 11.3803C690.933 12.0736 692.917 12.8136 695.45 13.6003C698.29 14.4903 700.14 16.3003 702.96 17.2603C704.853 17.9003 706.767 19.0103 708.7 20.5903C709.394 21.1587 710.191 21.596 711.05 21.8803L713.25 22.6103C713.675 22.7562 714.075 22.9616 714.44 23.2203C717.78 25.6069 720.63 27.4669 722.99 28.8003C726.21 30.6069 728.847 32.2669 730.9 33.7803C734.88 36.7003 739.67 39.1903 743.74 43.0303C755.087 53.7703 763.33 61.9936 768.47 67.7003C769.797 69.1669 771.903 72.3169 774.79 77.1503C775.415 78.1945 776.139 79.1757 776.95 80.0803C779.943 83.4336 782.343 86.9336 784.15 90.5803C784.363 91.0128 784.611 91.4243 784.89 91.8103C788.27 96.4903 790.29 99.5503 790.95 100.99C792.223 103.764 793.19 105.68 793.85 106.74C795.043 108.674 795.943 110.597 796.55 112.51C797.27 114.81 798.443 117.397 800.07 120.27C800.203 120.495 800.297 120.739 800.35 120.99L801.87 127.77C802.01 128.369 802.207 128.952 802.46 129.51L804.81 134.69C804.837 134.743 804.857 134.797 804.87 134.85C805.243 136.224 805.493 138.507 805.62 141.7C805.77 145.25 808.52 147.03 809.55 150.18C809.689 150.599 809.774 151.032 809.8 151.47C809.993 154.437 810.133 158.184 810.22 162.71C810.247 164.017 811.233 166.94 813.18 171.48C813.733 172.767 814.053 174.937 814.14 177.99C814.34 184.817 814.32 194.857 814.08 208.11C813.98 213.22 812.36 216.41 810.84 220.75C810.628 221.355 810.49 221.983 810.43 222.62C810.143 225.647 809.947 229.084 809.84 232.93C809.76 235.844 808.873 238.437 807.18 240.71C806.46 241.677 806.057 242.734 805.97 243.88C805.63 248.294 804.75 252.027 803.33 255.08C802.31 257.28 801.6 259.357 801.2 261.31C800.633 264.07 799.463 267.13 797.69 270.49C797.411 271.016 797.183 271.568 797.01 272.14C795.81 276.14 793.79 279.45 791.89 283.27C790.017 287.024 788.33 289.98 786.83 292.14C785.39 294.207 784.247 296.017 783.4 297.57C781 302 777.72 305.73 775.05 308.95C774.704 309.362 774.406 309.812 774.16 310.29C771.753 314.91 768.17 319.63 763.41 324.45C756.59 331.357 751.69 336.22 748.71 339.04C744.37 343.147 738.973 347.327 732.52 351.58C726.913 355.267 721.11 358.894 715.11 362.46C712.38 364.08 709.07 364.68 706.79 367.21C706.191 367.881 705.399 368.352 704.52 368.56C701.927 369.187 699.6 370.284 697.54 371.85C696.869 372.363 696.085 372.712 695.25 372.87C692.603 373.37 689.777 374.547 686.77 376.4C685.563 377.147 682.903 377.894 678.79 378.64C678.045 378.773 677.315 378.971 676.61 379.23L670.29 381.54C670.27 381.547 670.25 381.554 670.23 381.56C668.27 381.894 665.65 382.157 662.37 382.35C660.77 382.45 657.123 383.467 651.43 385.4C650.572 385.693 649.692 385.911 648.8 386.05C645.887 386.51 642.1 386.737 637.44 386.73C609.06 386.67 550.143 386.674 460.69 386.74C459.117 386.74 456.797 386.644 453.73 386.45C453.118 386.411 452.523 386.233 451.99 385.93C450.31 384.99 448.86 383.61 446.84 382.84C444.42 381.907 442.973 381.274 442.5 380.94C437.56 377.454 433.273 373.247 429.64 368.32C427.43 365.33 426.9 361.44 424.76 358.65C423.15 356.54 423.1 353.52 423.1 351.74C423.22 240.027 423.227 134.86 423.12 36.2403C423.12 34.0469 423.313 31.8169 423.7 29.5503C423.739 29.2872 423.839 29.0373 423.99 28.8203Z" fill="#CEDCE5"/>
<path d="M1129.34 18.261C1132.25 17.401 1134.08 16.771 1134.82 16.371C1138.96 14.151 1141.05 13.261 1145.26 13.081C1150.31 12.8544 1153.87 12.5744 1155.92 12.241C1157.43 11.9957 1158.97 11.9654 1160.49 12.151C1163.4 12.4977 1168.06 12.8177 1174.47 13.111C1178.41 13.301 1182.72 16.241 1186.49 17.471C1189.68 18.511 1192.75 20.341 1195.7 22.961C1197.95 24.9677 1199.87 26.4644 1201.46 27.451C1206.41 30.531 1210.2 33.551 1213.75 38.431C1217.49 43.5777 1220.64 49.391 1223.2 55.871C1223.22 55.9174 1223.23 55.9645 1223.24 56.011L1224.07 61.921C1224.2 62.7828 1224.45 63.6187 1224.82 64.4011L1227.02 68.9711C1227.04 69.011 1227.06 69.0511 1227.07 69.091C1228.14 72.611 1228.54 77.7477 1228.26 84.501C1228.08 88.871 1228.01 90.701 1226.11 93.911C1223.64 98.081 1223.86 103.821 1222.64 106.681C1221.49 109.374 1219.63 113.034 1217.07 117.661C1215.18 121.074 1213.2 123.791 1211.13 125.811C1205.76 131.081 1201.4 135.841 1193.96 139.801C1187.94 143.001 1182.73 145.801 1176.17 146.681C1164.76 148.201 1153.67 148.248 1142.91 146.821C1138.38 146.221 1136.59 146.111 1132.92 144.331C1129.01 142.431 1124.29 139.951 1118.76 136.891C1118.26 136.612 1117.79 136.262 1117.38 135.851L1105.32 123.791C1104.96 123.426 1104.65 123.009 1104.4 122.551C1101.58 117.224 1099.18 112.994 1097.21 109.861C1096.14 108.161 1095.45 106.521 1095.13 104.941C1094.49 101.801 1093.29 98.7344 1091.54 95.741C1090.88 94.6098 1090.5 93.3434 1090.41 92.041C1090.02 86.5144 1089.94 80.7477 1090.15 74.741C1090.31 70.181 1090.46 66.731 1092.43 63.391C1093.59 61.441 1094.48 59.941 1094.57 58.181C1094.68 55.8944 1095.57 53.8977 1097.22 52.191C1098.83 50.531 1098.9 49.361 1099.51 46.881C1099.58 46.598 1099.71 46.3314 1099.89 46.101L1102.72 42.511C1102.88 42.3121 1103.01 42.0931 1103.1 41.861C1105.83 35.2411 1110.23 30.3977 1116.28 27.331C1119.29 25.8044 1121.37 24.3844 1122.5 23.071C1122.99 22.4977 1124.95 21.0444 1128.38 18.711C1128.67 18.5123 1129 18.3604 1129.34 18.261Z" fill="#CEDCE5"/>
<path d="M881.95 13.0009C882.888 13.0848 883.768 13.4873 884.44 14.1409C898.667 27.9809 906.627 35.8075 908.32 37.6209C918.43 48.4309 929.92 58.8809 939.23 68.6809C947.05 76.9209 955.07 83.8708 963.08 92.5008C970.35 100.331 980.51 109.261 987.47 116.711C992.223 121.798 997.203 126.814 1002.41 131.761C1011.85 140.721 1021.55 151.411 1029.77 159.021C1037.21 165.911 1044.38 174.161 1052.75 182.111C1058.81 187.858 1066.12 195.184 1074.67 204.091C1077.7 207.241 1081.12 210.221 1084.53 213.661C1088.33 217.494 1102.89 232.081 1128.22 257.421C1164.25 293.454 1191.34 320.451 1209.51 338.411C1217.02 345.831 1220.88 349.644 1221.09 349.851C1222.97 351.741 1226.35 357.301 1226.91 358.551C1228.38 361.864 1228.78 365.594 1228.09 369.741C1227.98 370.441 1227.68 371.098 1227.22 371.641L1224.76 374.631C1224.62 374.796 1224.52 374.986 1224.45 375.191L1223.06 379.361C1222.86 379.963 1222.49 380.499 1222.01 380.911C1218.71 383.731 1215.54 386.751 1211.44 386.751C1013.31 386.724 898.443 386.711 866.85 386.711C865.645 386.711 864.467 386.349 863.47 385.671L857.01 381.301C856.47 380.932 856.019 380.443 855.69 379.871L850.7 371.231C850.34 370.609 850.15 369.898 850.15 369.171V30.5709C850.15 29.3419 850.611 28.1576 851.44 27.2509C852.967 25.5909 854.01 23.9942 854.57 22.4609C855.87 18.8909 858.28 17.5009 861 15.3009C864.63 12.3809 868.43 12.8709 872.37 12.2109C872.569 12.1777 872.768 12.1709 872.96 12.1909L881.95 13.0009Z" fill="#CEDCE5"/>
<path d="M628.68 465.731C629.727 464.838 630.903 464.624 632.21 465.091C634.21 465.804 636.963 465.761 640.47 464.961C645.4 463.841 646.16 467.621 646.16 471.791C646.173 495.051 646.27 512.684 646.45 524.691C646.463 525.584 646.497 526.478 646.55 527.371C646.557 527.511 646.58 527.652 646.62 527.791L650.17 539.521C650.534 540.71 651.117 541.823 651.89 542.801C654.5 546.091 658.2 549.911 662.72 552.111C665.93 553.691 667.26 554.581 670.2 555.201C674.707 556.161 679.43 555.998 684.37 554.711C686.6 554.131 689.01 552.601 691.28 551.871C691.771 551.712 692.233 551.479 692.65 551.181C696.17 548.661 699.477 545.224 702.57 540.871C702.912 540.391 703.141 539.84 703.24 539.261C703.68 536.721 704.537 533.761 705.81 530.381C706.403 528.801 706.747 526.258 706.84 522.751C707.267 506.698 707.237 488.868 706.75 469.261C706.697 466.954 708.017 465.511 710.71 464.931C711.058 464.852 711.42 464.866 711.76 464.971C714.427 465.751 716.917 465.838 719.23 465.231C721.223 464.711 722.537 464.628 723.17 464.981C724.437 465.688 725.067 466.758 725.06 468.191C724.907 494.064 724.94 517.248 725.16 537.741C725.18 539.821 725.2 543.091 723.39 545.431C721.24 548.221 721.25 551.801 719.26 554.751C716.067 559.458 711.887 562.908 706.72 565.101C705.923 565.44 705.165 565.866 704.46 566.371C700.93 568.951 698.67 569.281 694.84 569.371C694.538 569.378 694.243 569.46 693.98 569.611L688.08 573.021C687.477 573.368 686.798 573.551 686.11 573.551H667.36C666.538 573.551 665.73 573.363 665 573.001C662.79 571.931 659.98 569.881 657.25 569.461C655.36 569.171 652.5 569.481 650.68 568.001C648.96 566.594 647.38 565.648 645.94 565.161C643.973 564.494 642.487 563.714 641.48 562.821C637.4 559.211 633.19 555.461 631.69 550.361C631.297 549.014 630.477 547.328 629.23 545.301C628.55 544.201 628.097 541.684 627.87 537.751C626.98 522.581 628.02 499.251 627.46 471.991C627.413 469.744 627.637 467.924 628.13 466.531C628.241 466.217 628.431 465.94 628.68 465.731Z" fill="#CEDCE5"/>
<path d="M849.55 465.659C851.07 465.659 852.73 465.169 854.89 464.699C857.89 464.049 859.11 467.699 859.11 470.239C859.07 510.286 859.083 542.533 859.15 566.979C859.16 570.799 852.29 569.979 849.62 569.979C846.94 569.979 840.08 570.809 840.08 566.989C840.113 542.543 840.083 510.296 839.99 470.249C839.98 467.709 841.2 464.059 844.2 464.709C846.36 465.169 848.03 465.659 849.55 465.659Z" fill="#CEDCE5"/>
<path d="M975.73 568.899C975.483 568.774 975.267 568.597 975.098 568.379C974.928 568.161 974.81 567.908 974.75 567.639C974.317 565.666 974.147 563.116 974.24 559.989C974.307 557.696 974.343 553.113 974.35 546.239C974.383 521.393 974.357 496.636 974.27 471.969C974.257 469.263 974.493 467.663 974.98 467.169C976.53 465.579 978.49 465.739 980.63 465.629C985.58 465.369 994.18 464.199 996.2 468.259C996.527 468.919 996.687 470.109 996.68 471.829C996.613 488.569 996.584 513.829 996.59 547.609C996.59 548.849 996.827 550.086 997.3 551.319C997.46 551.734 997.739 552.092 998.102 552.348C998.465 552.605 998.896 552.748 999.34 552.759C1015.04 553.219 1031.31 553.119 1048.15 552.459C1050.9 552.353 1052.87 552.606 1054.05 553.219C1056.4 554.453 1058.03 555.983 1058.94 557.809C1059.02 557.967 1059.06 558.141 1059.07 558.319L1059.23 566.069C1059.24 566.603 1059.11 567.13 1058.84 567.594C1058.57 568.058 1058.18 568.44 1057.71 568.699C1056.76 569.226 1055.08 569.513 1052.69 569.559C1037.6 569.839 1024.53 569.009 1007.37 569.459C996.737 569.733 987.093 569.749 978.44 569.509C977.393 569.476 976.49 569.273 975.73 568.899Z" fill="#CEDCE5"/>
<path d="M426.03 568.44C425.792 568.313 425.592 568.124 425.453 567.893C425.314 567.663 425.24 567.399 425.24 567.13L425.3 469.24C425.3 469.214 425.304 469.19 425.31 469.17C426.044 467.097 427.52 466.057 429.74 466.05C434.487 466.03 448.747 465.93 472.52 465.75C481.63 465.69 486.72 466.3 497.15 467.12C498.035 467.186 498.898 467.427 499.69 467.83C506.424 471.223 511.79 476.003 515.79 482.17C516.097 482.64 516.26 483.189 516.26 483.75V503.89C516.26 504.416 516.056 504.922 515.69 505.3C512.377 508.667 509.93 511.05 508.35 512.45C506.24 514.31 505.72 515.73 507.7 517.89C509.234 519.557 510.954 521.117 512.86 522.57C513.093 522.757 513.311 522.961 513.51 523.18L519.88 530.44C520.603 531.266 521 532.325 521 533.42C520.98 538.713 520.884 543.237 520.71 546.99C520.61 549.44 520.31 551.56 518.88 553.87C515.91 558.67 512.72 563.35 508.8 564.62C506.894 565.24 504.897 566.224 502.81 567.57C501.677 568.297 500.157 568.71 498.25 568.81C483.64 569.58 466.95 569.24 452.12 569.5C441.3 569.687 434.077 569.687 430.45 569.5C428.677 569.413 427.204 569.06 426.03 568.44ZM448.13 505.25C448.844 506.31 449.964 506.86 451.49 506.9C460.577 507.113 472.147 507.087 486.2 506.82C488.98 506.774 491.174 505.524 492.78 503.07C495.394 499.064 496.864 496.823 497.19 496.35C497.322 496.157 497.404 495.934 497.429 495.702C497.453 495.469 497.419 495.235 497.33 495.02L494.05 486.99C493.865 486.538 493.585 486.131 493.23 485.796C492.875 485.461 492.452 485.207 491.99 485.05C487.87 483.637 483.44 482.85 478.7 482.69C468.494 482.35 459.917 482.19 452.97 482.21C448.95 482.22 447.71 485.83 447.9 489.58C448.134 493.947 448.1 498.767 447.8 504.04C447.774 504.468 447.89 504.893 448.13 505.25ZM448.04 527.09C448.154 537.103 448.117 543.45 447.93 546.13C447.69 549.75 448.79 552.7 452.29 553.57C452.536 553.63 452.785 553.657 453.03 553.65C455.404 553.57 459.207 553.533 464.44 553.54C470.194 553.547 476.877 553.244 484.49 552.63C489.59 552.224 493.044 551.284 494.85 549.81C497.697 547.49 499.184 544.244 499.31 540.07C499.42 536.57 499.12 531.39 495.76 529.44C492.92 527.79 488.86 524.79 485.67 524.8C472.537 524.847 461.634 524.834 452.96 524.76C451.127 524.747 449.744 525.043 448.81 525.65C448.571 525.806 448.376 526.02 448.241 526.272C448.106 526.523 448.037 526.805 448.04 527.09Z" fill="#CEDCE5"/>
<path d="M1218.77 465.781C1222.12 465.791 1227.62 464.721 1227.96 469.521C1228.2 472.821 1229.03 480.201 1224.93 481.621C1222.79 482.361 1221.04 482.704 1219.68 482.651C1210.41 482.291 1202.09 482.407 1194.74 483.001C1192.81 483.154 1191.44 484.104 1190.63 485.851C1190.52 486.102 1190.45 486.37 1190.44 486.641C1190.25 489.567 1190.16 491.517 1190.17 492.491C1190.26 513.377 1190.31 535.394 1190.31 558.541C1190.31 561.531 1190.74 563.491 1190.98 566.111C1191.04 566.71 1190.87 567.31 1190.52 567.797C1190.17 568.285 1189.65 568.627 1189.06 568.761C1182.57 570.234 1175.78 570.221 1168.67 568.721C1166.71 568.311 1166.22 567.081 1166.27 565.241C1166.88 541.547 1167.01 515.214 1166.67 486.241C1166.66 485.041 1166.19 484.087 1165.27 483.381C1165.02 483.185 1164.72 483.067 1164.4 483.041C1161.58 482.791 1156.62 482.291 1152.79 482.431C1147.92 482.624 1142.48 482.621 1136.45 482.421C1134.37 482.354 1132.74 481.644 1131.55 480.291C1129.52 477.981 1129.87 471.071 1130.48 468.501C1130.66 467.764 1131.07 467.106 1131.66 466.631C1132.25 466.155 1132.98 465.888 1133.73 465.871C1140.4 465.711 1151.71 465.774 1167.66 466.061C1184.93 466.381 1200.94 465.751 1218.77 465.781Z" fill="#CEDCE5"/>
</svg>
